<?xml version="1.0" standalone="no"?>
<!DOCTYPE svg PUBLIC "-//W3C//DTD SVG 20010904//EN"
 "http://www.w3.org/TR/2001/REC-SVG-20010904/DTD/svg10.dtd">
<svg version="1.0" xmlns="http://www.w3.org/2000/svg"
 width="16.000000pt" height="16.000000pt" viewBox="0 0 16.000000 16.000000"
 preserveAspectRatio="xMidYMid meet">
<metadata>
Created by potrace 1.11, written by Peter Selinger 2001-2013
</metadata>
<g transform="translate(0.000000,16.000000) scale(0.002286,-0.002286)"
fill="#000000" stroke="none">
<path d="M3727 5984 c-1 -1 -69 -5 -152 -9 -158 -7 -180 -9 -285 -19 -36 -4
-87 -9 -115 -12 -27 -2 -61 -6 -75 -9 -29 -5 -67 -11 -130 -20 -272 -39 -679
-150 -951 -260 -100 -41 -302 -137 -324 -155 -5 -4 -41 -25 -80 -46 -91 -49
-241 -144 -330 -208 -361 -259 -574 -514 -669 -802 -27 -81 -30 -105 -29 -259
0 -44 1 -120 1 -170 0 -190 74 -352 238 -522 64 -66 185 -163 203 -163 6 0 11
-4 11 -8 0 -17 198 -102 285 -123 141 -33 226 -21 293 44 83 80 71 220 -25
294 -21 16 -110 67 -198 112 -222 115 -234 125 -281 218 -23 46 -25 61 -20
112 36 341 349 676 861 925 191 93 462 188 685 241 8 1 51 12 95 24 44 11 91
22 105 25 14 3 34 7 45 9 36 9 289 56 325 62 19 3 46 8 60 10 14 3 45 7 70 10
25 2 59 6 75 9 17 2 62 7 100 11 39 3 86 8 105 10 308 34 836 35 1140 1 101
-11 140 -16 210 -27 36 -6 79 -13 95 -16 155 -24 396 -108 513 -178 230 -137
337 -339 300 -570 -31 -198 -204 -413 -521 -649 -160 -119 -461 -288 -657
-370 -25 -11 -63 -27 -85 -37 -151 -67 -692 -242 -823 -265 -14 -3 -29 -7 -33
-9 -4 -3 -40 -12 -80 -21 -41 -8 -81 -17 -89 -19 -24 -6 -262 -53 -300 -60
-19 -3 -46 -7 -60 -10 -41 -8 -82 -14 -135 -20 -27 -3 -61 -8 -75 -10 -14 -3
-52 -7 -85 -10 -33 -4 -68 -9 -77 -11 -10 -3 -18 -2 -18 2 0 9 128 220 249
409 385 604 733 997 981 1109 67 31 103 35 180 19 121 -24 212 56 205 181 -13
206 -127 321 -421 422 -149 51 -323 40 -487 -33 -78 -34 -209 -119 -295 -191
-143 -120 -357 -353 -440 -481 -20 -31 -39 -58 -42 -61 -3 -3 -22 -39 -42 -80
-54 -112 -67 -166 -62 -259 7 -123 -9 -158 -374 -821 l-129 -235 -39 4 c-210
23 -314 -41 -315 -194 -1 -28 6 -67 14 -86 19 -47 70 -104 106 -119 l30 -12
-84 -166 c-240 -479 -420 -913 -470 -1137 -52 -231 -52 -350 1 -426 39 -56
119 -91 289 -124 17 -3 67 -8 113 -10 67 -4 94 0 140 17 155 57 333 237 497
502 27 43 71 104 97 135 102 118 133 232 88 320 -46 91 -131 115 -236 67 -62
-28 -173 -134 -274 -259 -34 -43 -64 -76 -66 -74 -4 3 46 138 71 192 7 17 22
50 33 75 42 98 69 154 177 375 88 179 238 470 249 482 0 1 62 4 136 8 199 9
301 16 440 30 25 3 70 7 100 10 30 3 66 7 80 10 14 2 52 7 85 10 33 3 85 10
115 15 57 10 130 21 167 25 12 2 34 6 50 9 31 7 30 7 158 31 235 43 612 146
848 229 506 180 824 362 1155 663 250 227 400 491 445 785 13 79 15 267 4 328
-14 76 -20 101 -42 167 -93 275 -330 551 -615 717 -129 75 -356 171 -450 191
-8 1 -35 8 -60 15 -25 7 -52 14 -60 15 -8 2 -67 15 -130 29 -145 32 -141 31
-330 61 -42 7 -182 24 -245 30 -33 4 -71 8 -85 10 -74 11 -614 27 -623 19z"/>
</g>
</svg>
