<svg version="1.1" xmlns="http://www.w3.org/2000/svg"
xmlns:xlink="http://www.w3.org/1999/xlink"
viewBox="0 0 100 100" height="100" width="100">

    <symbol id="navicon" viewBox="0 0 100 100">
        <path
            d="M96,24.4c0,2.1-1.7,3.8-3.8,3.8H7.8c-2.1,0-3.8-1.7-3.8-3.8v-7.7c0-2.1,1.7-3.8,3.8-3.8h84.3c2.1,0,3.8,1.7,3.8,3.8V24.4z
    		 M96,55c0,2.1-1.7,3.8-3.8,3.8H7.8C5.7,58.9,4,57.1,4,55v-7.7c0-2.1,1.7-3.8,3.8-3.8h84.3c2.1,0,3.8,1.7,3.8,3.8V55z M96,85.7
    		c0,2.1-1.7,3.8-3.8,3.8H7.8c-2.1,0-3.8-1.7-3.8-3.8V78c0-2.1,1.7-3.8,3.8-3.8h84.3c2.1,0,3.8,1.7,3.8,3.8V85.7z"/>
    </symbol>

    <symbol id="facebook" viewBox="0 0 100 100">
        <path
            d="M95,23v56.3c0,9.3-7.6,16.9-16.9,16.9h-11V61.3h11.7l1.8-13.6H67.1V39c0-3.9,1.1-6.6,6.7-6.6l7.1-0.1V20.3
    		c-1.2-0.2-5.5-0.5-10.4-0.5C60.2,19.8,53,26.1,53,37.7v10H41.3v13.6H53v34.9H21.9C12.6,96.2,5,88.6,5,79.3V23
    		c0-9.3,7.6-16.9,16.9-16.9h56.2C87.4,6.2,95,13.7,95,23z"/>
    </symbol>

    <symbol id="pinterest" viewBox="0 0 100 100">
        <path
            d="M96,22.5v57.5c0,9.5-7.7,17.2-17.2,17.2H35.3c2-2.8,5.2-7.7,6.5-12.6c0,0,0.5-2,3.2-12.5c1.6,3.1,6.2,5.7,11.1,5.7
    		c14.6,0,24.6-13.4,24.6-31.2c0-13.5-11.4-26.1-28.8-26.1C30.2,20.5,19.3,36,19.3,49c0,7.8,3,14.7,9.3,17.4c1,0.4,2,0,2.3-1.1
    		c0.2-0.8,0.7-2.8,0.9-3.7c0.3-1.1,0.2-1.6-0.7-2.5c-1.8-2.2-3-5-3-9c0-11.5,8.6-21.7,22.4-21.7c12.2,0,18.9,7.4,18.9,17.4
    		c0,13.1-5.8,24.2-14.4,24.2c-4.7,0-8.3-4-7.2-8.8c1.4-5.8,4-12,4-16.1c0-3.7-2-6.8-6.1-6.8c-4.9,0-8.7,5-8.7,11.7
    		c0,0,0,4.3,1.4,7.2c-5,21.1-5.9,24.8-5.9,24.8c-1.3,5.5-0.8,11.9-0.4,15.2h-11C11.7,97.2,4,89.5,4,79.9V22.5
    		c0-9.5,7.7-17.2,17.2-17.2h57.5C88.3,5.2,96,12.9,96,22.5z"/>
    </symbol>

    <symbol id="chevron-up" viewBox="0 0 100 100">
        <path d="M81.9,81.8c-1.3,1.3-3.3,1.3-4.6,0L50,54.6L22.7,81.8c-1.3,1.3-3.3,1.3-4.6,0l-8.5-8.5c-1.3-1.3-1.3-3.4,0-4.7l38.1-38
    		c1.3-1.3,3.3-1.3,4.6,0l38.1,38c1.3,1.3,1.3,3.4,0,4.7L81.9,81.8z"/>
    </symbol>

    <symbol id="close" viewBox="0 0 100 100">
        <path
            d="M87,83.6l-8.9,8.9c-1.2,1.2-2.8,1.8-4.4,1.8c-1.6,0-3.3-0.7-4.4-1.8L50,73.3L30.8,92.5c-1.2,1.2-2.8,1.8-4.4,1.8
    		c-1.6,0-3.3-0.7-4.4-1.8L13,83.6c-1.2-1.2-1.8-2.8-1.8-4.4s0.7-3.3,1.8-4.4l19.2-19.2L13,36.3c-1.2-1.2-1.8-2.8-1.8-4.4
    		s0.7-3.3,1.8-4.4l8.9-8.9c1.2-1.2,2.8-1.8,4.4-1.8c1.6,0,3.3,0.7,4.4,1.8L50,37.7l19.2-19.2c1.2-1.2,2.8-1.8,4.4-1.8
    		c1.6,0,3.3,0.7,4.4,1.8l8.9,8.9c1.2,1.2,1.8,2.8,1.8,4.4s-0.7,3.3-1.8,4.4L67.8,55.5L87,74.7c1.2,1.2,1.8,2.8,1.8,4.4
    		S88.2,82.4,87,83.6z"/>
    </symbol>
    <symbol id="fa-facebook" viewBox="0 0 100 100">
      <path d="M72.4,19.9h-7.9c-6.2,0-7.3,3-7.3,7.2v9.5h14.7l-2,14.9H57.2v38.1H41.9V51.4H29.1V36.6h12.8V25.7C41.9,13,49.7,6,61,6
    		c5.4,0,10.1,0.4,11.4,0.6V19.9z"/>
    </symbol>
    <symbol id="fa-pinterest" viewBox="0 0 100 100">
      <path d="M52,6c15.8,0,30.1,10.8,30.1,27.4c0,15.6-8,32.9-25.7,32.9c-4.2,0-9.5-2.1-11.6-6C41,75.5,41.3,77.7,32.8,89.3l-0.7,0.3
        L31.7,89c-0.3-3.2-0.8-6.3-0.8-9.4c0-10.2,4.7-25,7-35c-1.3-2.6-1.6-5.7-1.6-8.5c0-5.1,3.5-11.5,9.2-11.5c4.2,0,6.5,3.2,6.5,7.2
        c0,6.5-4.4,12.6-4.4,19c0,4.3,3.6,7.3,7.7,7.3c11.5,0,15.1-16.7,15.1-25.5c0-11.9-8.4-18.4-19.8-18.4c-13.2,0-23.5,9.5-23.5,23
        c0,6.5,4,9.8,4,11.3c0,1.3-1,5.9-2.6,5.9c-0.3,0-0.6-0.1-0.9-0.2c-7.2-2.2-9.8-11.7-9.8-18.3C17.9,17.5,34.9,6,52,6z"/>
    </symbol>
    <symbol id="fa-home" viewBox="0 0 100 100">
      <path d="M87,56.1c-0.3,0.3-0.7,0.5-1.1,0.6c0,0-0.1,0-0.2,0c-0.4,0-0.8-0.1-1.1-0.4L50,27.3L15.3,56.3c-0.4,0.3-0.8,0.4-1.2,0.4
    		c-0.4-0.1-0.8-0.3-1.1-0.6l-3.1-3.7c-0.6-0.7-0.5-1.7,0.2-2.3L46.2,20c2.1-1.8,5.5-1.8,7.6,0l12.2,10.2v-9.8c0-0.9,0.7-1.6,1.6-1.6
    		h9.6c0.9,0,1.6,0.7,1.6,1.6V41l11,9.1c0.7,0.6,0.8,1.6,0.2,2.3L87,56.1z M78.9,79.9c0,1.8-1.5,3.2-3.2,3.2H56.4V63.8H43.6v19.3
    		H24.3c-1.8,0-3.2-1.5-3.2-3.2V55.8c0-0.1,0-0.2,0-0.3L50,31.7l28.8,23.8c0.1,0.1,0.1,0.2,0.1,0.3V79.9z"/>
    </symbol>
    <symbol id="fa-arrow-down" viewBox="0 0 100 100">
      <path d="M87.2,52.3L54.6,85c-1.2,1.2-2.9,1.9-4.6,1.9s-3.4-0.7-4.5-1.9L12.8,52.3c-1.2-1.2-1.9-2.8-1.9-4.5c0-1.7,0.7-3.4,1.9-4.6
        l3.7-3.8c1.2-1.2,2.9-1.9,4.6-1.9s3.4,0.7,4.5,1.9l14.8,14.8V18.9c0-3.5,2.9-6.4,6.4-6.4h6.4c3.5,0,6.4,2.9,6.4,6.4v35.3l14.8-14.8
        c1.2-1.2,2.8-1.9,4.5-1.9s3.4,0.7,4.6,1.9l3.8,3.8c1.2,1.2,1.9,2.9,1.9,4.6C89.1,49.5,88.4,51.1,87.2,52.3z"/>
    </symbol>

    <symbol id="cone" x="0px" y="0px"
    	 viewBox="0 0 504.124 504.124" style="enable-background:new 0 0 504.124 504.124;" xml:space="preserve">
      <path style="fill:#CE5E55;" d="M454.892,397.785H49.231v46.474c0,33.083,90.978,59.865,202.831,59.865
      	s202.831-26.782,202.831-59.865v-46.474H454.892z"/>
      <path style="fill:#DE655B;" d="M252.062,338.708c111.852,0,202.831,26.388,202.831,59.077s-90.978,59.077-202.831,59.077
      	S49.231,430.474,49.231,397.785S140.209,338.708,252.062,338.708z"/>
      <path style="fill:#E66B62;" d="M381.243,374.154L289.871,28.751C285.538,11.815,269.785,0,252.455,0h-0.788
      	c-17.723,0-33.083,11.815-37.415,28.751L122.88,374.154c-0.788,1.969-1.575,3.545-1.575,5.514
      	c0,21.662,58.683,39.385,130.757,39.385s130.757-17.723,130.757-39.385C382.819,377.698,382.425,376.123,381.243,374.154z"/>
      <path style="fill:#D4635A;" d="M144.935,379.668c0-1.969,0.788-3.938,1.575-5.514l91.372-345.403
      	c3.545-12.997,13.391-23.237,25.994-26.782C260.332,0.788,256.394,0,252.455,0h-0.788c-17.723,0-33.083,11.815-37.415,28.751
      	L122.88,374.154c-0.788,1.969-1.575,3.545-1.575,5.514c0,21.662,58.683,39.385,130.757,39.385h11.815
      	C197.317,417.083,144.935,400.148,144.935,379.668z"/>
      <path style="fill:#FFFFFF;" d="M362.338,302.868l-23.631-89.403c-23.237,6.302-53.563,9.846-86.646,9.846
      	s-63.803-3.545-86.646-9.846l-23.631,89.403c23.237,11.028,63.803,18.117,110.277,18.117S339.102,313.502,362.338,302.868z
      	 M324.923,161.477l-21.268-80.345c-15.754,2.757-33.477,4.332-51.594,4.332s-35.84-1.575-51.594-4.332L179.2,161.477
      	c20.874,5.514,46.08,8.665,72.862,8.665S304.049,166.991,324.923,161.477z"/>
      <path style="fill:#EBEBEB;" d="M179.2,161.477c7.089,1.969,14.572,3.545,22.449,4.726l21.662-81.92
      	c-7.877-0.788-15.36-1.575-22.843-2.757L179.2,161.477z M187.865,218.191c-7.877-1.182-15.36-3.151-22.449-4.726l-23.631,89.403
      	c5.908,2.757,13.391,5.514,21.662,7.877L187.865,218.191z"/>
    </symbol>

    <symbol id="herbal-oil" x="0px" y="0px"
        viewBox="0 0 488.976 488.976" style="enable-background:new 0 0 488.976 488.976;" xml:space="preserve">
        		<path  d="M159.745,112.898H329.23c5.498,0,9.97-4.473,9.97-9.97V85.204c0-5.497-4.473-9.97-9.97-9.97H159.745
        			c-5.498,0-9.971,4.473-9.971,9.97v17.725C149.775,108.426,154.248,112.898,159.745,112.898z"/>
        		<polygon points="296.114,63.127 307.192,0 181.783,0 192.861,63.127 		"/>
        		<path d="M275.161,140.976h-61.347c-52.976,0-96.075,43.099-96.075,96.075v251.925h253.498V237.052
        			C371.237,184.075,328.137,140.976,275.161,140.976z M334.629,460.321H154.346V276.932c0-12.876,10.437-23.313,23.313-23.313
        			h133.657c12.875,0,23.312,10.437,23.312,23.312v183.39H334.629z"/>
        		<path d="M303.988,406.23c-57.667,0-104.581-51.47-104.581-114.734c0-6.729-5.455-12.185-12.185-12.185
        			c-6.728,0-12.184,5.455-12.184,12.185c0,76.701,57.847,139.103,128.95,139.103c6.729,0,12.184-5.455,12.184-12.184
        			C316.172,411.684,310.717,406.23,303.988,406.23z"/>
        		<path d="M232.569,353.926c3.743,6.901,12.371,9.462,19.272,5.72l14.281-7.745c6.901-3.743,9.462-12.371,5.719-19.273
        			c-3.742-6.9-12.371-9.461-19.271-5.719l-14.281,7.745C231.386,338.398,228.826,347.025,232.569,353.926z"/>
        		<path d="M204.847,406.106l-14.28,7.745c-6.901,3.743-9.461,12.371-5.719,19.272s12.371,9.462,19.272,5.719l14.281-7.745
        			c6.901-3.742,9.462-12.371,5.719-19.272C220.377,404.925,211.748,402.365,204.847,406.106z"/>
        		<path d="M214.808,317.762c6.377,4.579,15.258,3.122,19.837-3.255l9.475-13.196c4.579-6.377,3.122-15.259-3.256-19.838
        			c-6.376-4.579-15.258-3.121-19.837,3.255l-9.476,13.196C206.973,304.302,208.431,313.183,214.808,317.762z"/>
    </symbol>

    <symbol id="team" x="0px" y="0px"
    	 viewBox="0 0 486.11 486.11" style="enable-background:new 0 0 486.11 486.11;" xml:space="preserve">
       <path d="M265.341,129.609L265.341,129.609v-8.1c0,0,25.5,0.8,37.7-11.6c0,0-17.6-5-14.5-37.1c3.2-32.1-4-60.3-29.8-57.9
         c0,0-11.2-13.5-33.4-5c-7.6,2.9-28.1,10.3-27.1,54.7c1,44.5-15.8,44.7-15.8,44.7s8.7,12.6,38.2,12.4v8.3l22.4,65.5l22.4-65.3
         L265.341,129.609z"/>
       <path d="M163.441,200.009h78.6h2.1h78.5c1.9,0,3.3-1.7,2.9-3.5l-4.5-24.9c-1.5-8.1-6.7-15-14-18.6l-28.2-13.9
         c-1.6-0.8-3.2-1.7-4.8-2.6l8.9,26.3l-12.4-1l-27.5,33.7l-27.4-33.8l-12.4,1l9.1-26.3l-5.6,2.9l-27.7,13.7
         c-7.4,3.6-12.6,10.5-14,18.6l-4.5,24.9C160.241,198.309,161.641,200.009,163.441,200.009z"/>
       <path d="M425.941,408.709L425.941,408.709v-8.1c0,0,25.5,0.8,37.7-11.6c0,0-17.6-5-14.5-37.1c3.2-32.1-4-60.3-29.8-57.9
         c0,0-11.2-13.5-33.4-5c-7.6,2.9-28.1,10.3-27.1,54.7c1,44.5-15.8,44.7-15.8,44.7s8.7,12.6,38.2,12.4v8.3l22.4,65.5l22.4-65.3
         L425.941,408.709z"/>
       <path d="M486.041,475.509l-4.5-24.9c-1.5-8.1-6.7-15-14-18.6l-28.2-13.9c-1.6-0.8-3.2-1.7-4.8-2.6l8.9,26.3l-12.4-1l-27.4,33.8
         l-27.4-33.8l-12.4,1l9.1-26.3l-5.6,2.9l-27.5,13.6c-7.4,3.6-12.6,10.5-14,18.6l-4.5,24.9c-0.3,1.8,1.1,3.5,2.9,3.5h78.5h2.1h78.5
         C485.041,479.009,486.441,477.409,486.041,475.509z"/>
       <path d="M104.841,408.709L104.841,408.709v-8.1c0,0,25.5,0.8,37.7-11.6c0,0-17.6-5-14.5-37.1c3.2-32.1-4-60.3-29.8-57.9
         c0,0-11.2-13.5-33.4-5c-7.6,2.9-28.1,10.3-27.1,54.7c1,44.5-15.8,44.7-15.8,44.7s8.7,12.6,38.2,12.4v8.3l22.4,65.5l22.4-65.3
         L104.841,408.709z"/>
       <path d="M160.541,450.609c-1.5-8.1-6.7-15-14-18.6l-28.3-13.9c-1.6-0.8-3.2-1.7-4.8-2.6l8.9,26.3l-12.4-1l-27.4,33.8l-27.5-33.8
         l-12.4,1l9.1-26.3l-5.6,2.9l-27.5,13.6c-7.4,3.6-12.6,10.5-14,18.6l-4.6,24.9c-0.3,1.8,1.1,3.5,2.9,3.5h78.5h2.1h78.5
         c1.9,0,3.3-1.7,2.9-3.5L160.541,450.609z"/>
       <path d="M243.141,263.409c-4.8,0-8.6,3.9-8.6,8.6c0,4.8,3.9,8.6,8.6,8.6c4.8,0,8.6-3.9,8.6-8.6
         C251.741,267.309,247.841,263.409,243.141,263.409z"/>
       <circle cx="243.141" cy="297.209" r="8.6"/>
       <circle cx="243.141" cy="322.409" r="8.6"/>
       <path d="M243.141,238.209c-2.3,0-4.5,0.9-6.1,2.5s-2.5,3.8-2.5,6.1c0,2.3,0.9,4.5,2.5,6.1s3.8,2.5,6.1,2.5c2.3,0,4.5-0.9,6.1-2.5
         s2.5-3.8,2.5-6.1c0-2.3-0.9-4.5-2.5-6.1C247.641,239.209,245.341,238.209,243.141,238.209z"/>
       <path d="M268.941,328.809c-4-2.6-9.3-1.4-11.9,2.6s-1.4,9.3,2.6,11.9s9.3,1.4,11.9-2.6S272.941,331.409,268.941,328.809z"/>
       <circle cx="285.441" cy="349.709" r="8.6"/>
       <circle cx="306.541" cy="363.309" r="8.6"/>
       <path d="M217.241,328.809c-4,2.6-5.2,7.9-2.6,11.9c2.6,4,7.9,5.2,11.9,2.6s5.1-7.9,2.6-11.9S221.241,326.209,217.241,328.809z"/>
       <circle cx="200.841" cy="349.709" r="8.6"/>
       <circle cx="179.641" cy="363.309" r="8.6"/>
    </symbol>

  </svg>
