<svg version="1.1" xmlns="http://www.w3.org/2000/svg" viewBox="0 0 100 100" height="100" width="100">

    <symbol id="navicon" viewBox="0 0 100 100">
        <path
            d="M96,24.4c0,2.1-1.7,3.8-3.8,3.8H7.8c-2.1,0-3.8-1.7-3.8-3.8v-7.7c0-2.1,1.7-3.8,3.8-3.8h84.3c2.1,0,3.8,1.7,3.8,3.8V24.4z
    		 M96,55c0,2.1-1.7,3.8-3.8,3.8H7.8C5.7,58.9,4,57.1,4,55v-7.7c0-2.1,1.7-3.8,3.8-3.8h84.3c2.1,0,3.8,1.7,3.8,3.8V55z M96,85.7
    		c0,2.1-1.7,3.8-3.8,3.8H7.8c-2.1,0-3.8-1.7-3.8-3.8V78c0-2.1,1.7-3.8,3.8-3.8h84.3c2.1,0,3.8,1.7,3.8,3.8V85.7z"/>
    </symbol>

    <symbol id="facebook" viewBox="0 0 100 100">
        <path
            d="M95,23v56.3c0,9.3-7.6,16.9-16.9,16.9h-11V61.3h11.7l1.8-13.6H67.1V39c0-3.9,1.1-6.6,6.7-6.6l7.1-0.1V20.3
    		c-1.2-0.2-5.5-0.5-10.4-0.5C60.2,19.8,53,26.1,53,37.7v10H41.3v13.6H53v34.9H21.9C12.6,96.2,5,88.6,5,79.3V23
    		c0-9.3,7.6-16.9,16.9-16.9h56.2C87.4,6.2,95,13.7,95,23z"/>
    </symbol>

    <symbol id="pinterest" viewBox="0 0 100 100">
        <path
            d="M96,22.5v57.5c0,9.5-7.7,17.2-17.2,17.2H35.3c2-2.8,5.2-7.7,6.5-12.6c0,0,0.5-2,3.2-12.5c1.6,3.1,6.2,5.7,11.1,5.7
    		c14.6,0,24.6-13.4,24.6-31.2c0-13.5-11.4-26.1-28.8-26.1C30.2,20.5,19.3,36,19.3,49c0,7.8,3,14.7,9.3,17.4c1,0.4,2,0,2.3-1.1
    		c0.2-0.8,0.7-2.8,0.9-3.7c0.3-1.1,0.2-1.6-0.7-2.5c-1.8-2.2-3-5-3-9c0-11.5,8.6-21.7,22.4-21.7c12.2,0,18.9,7.4,18.9,17.4
    		c0,13.1-5.8,24.2-14.4,24.2c-4.7,0-8.3-4-7.2-8.8c1.4-5.8,4-12,4-16.1c0-3.7-2-6.8-6.1-6.8c-4.9,0-8.7,5-8.7,11.7
    		c0,0,0,4.3,1.4,7.2c-5,21.1-5.9,24.8-5.9,24.8c-1.3,5.5-0.8,11.9-0.4,15.2h-11C11.7,97.2,4,89.5,4,79.9V22.5
    		c0-9.5,7.7-17.2,17.2-17.2h57.5C88.3,5.2,96,12.9,96,22.5z"/>
    </symbol>

    <symbol id="chevron-up" viewBox="0 0 100 100">
        <path d="M81.9,81.8c-1.3,1.3-3.3,1.3-4.6,0L50,54.6L22.7,81.8c-1.3,1.3-3.3,1.3-4.6,0l-8.5-8.5c-1.3-1.3-1.3-3.4,0-4.7l38.1-38
    		c1.3-1.3,3.3-1.3,4.6,0l38.1,38c1.3,1.3,1.3,3.4,0,4.7L81.9,81.8z"/>
    </symbol>

    <symbol id="close" viewBox="0 0 100 100">
        <path
            d="M87,83.6l-8.9,8.9c-1.2,1.2-2.8,1.8-4.4,1.8c-1.6,0-3.3-0.7-4.4-1.8L50,73.3L30.8,92.5c-1.2,1.2-2.8,1.8-4.4,1.8
    		c-1.6,0-3.3-0.7-4.4-1.8L13,83.6c-1.2-1.2-1.8-2.8-1.8-4.4s0.7-3.3,1.8-4.4l19.2-19.2L13,36.3c-1.2-1.2-1.8-2.8-1.8-4.4
    		s0.7-3.3,1.8-4.4l8.9-8.9c1.2-1.2,2.8-1.8,4.4-1.8c1.6,0,3.3,0.7,4.4,1.8L50,37.7l19.2-19.2c1.2-1.2,2.8-1.8,4.4-1.8
    		c1.6,0,3.3,0.7,4.4,1.8l8.9,8.9c1.2,1.2,1.8,2.8,1.8,4.4s-0.7,3.3-1.8,4.4L67.8,55.5L87,74.7c1.2,1.2,1.8,2.8,1.8,4.4
    		S88.2,82.4,87,83.6z"/>
    </symbol>
    </svg>
