<?xml version="1.0" standalone="no"?>
<!DOCTYPE svg PUBLIC "-//W3C//DTD SVG 20010904//EN"
 "http://www.w3.org/TR/2001/REC-SVG-20010904/DTD/svg10.dtd">
<svg version="1.0" xmlns="http://www.w3.org/2000/svg"
 width="16.000000pt" height="16.000000pt" viewBox="0 0 16.000000 16.000000"
 preserveAspectRatio="xMidYMid meet">
<metadata>
Created by potrace 1.11, written by Peter Selinger 2001-2013
</metadata>
<g transform="translate(0.000000,16.000000) scale(0.002286,-0.002286)"
fill="#000000" stroke="none">
<path d="M3837 5834 c-1 -1 -83 -4 -182 -8 -214 -8 -295 -12 -350 -20 -22 -3
-67 -8 -100 -11 -67 -7 -69 -8 -210 -30 -150 -24 -150 -24 -290 -56 -204 -47
-497 -136 -590 -179 -11 -5 -63 -27 -115 -49 -109 -45 -319 -159 -464 -251
-97 -61 -196 -128 -206 -140 -3 -3 -21 -17 -40 -30 -89 -61 -250 -211 -331
-310 -144 -175 -235 -381 -219 -500 4 -30 5 -75 3 -100 -16 -168 -4 -251 53
-365 99 -195 347 -388 564 -439 87 -21 126 -20 149 3 41 41 13 66 -189 169
-152 78 -246 140 -281 184 -15 19 -42 63 -60 99 -30 59 -33 71 -32 154 3 252
164 537 431 758 304 252 660 424 1157 559 105 28 328 81 389 92 16 3 52 10 80
15 84 17 108 21 271 46 92 14 130 19 245 30 36 3 79 8 95 10 164 20 831 28
1035 12 130 -11 146 -12 300 -33 127 -17 324 -63 443 -103 424 -144 639 -393
639 -740 0 -212 -88 -389 -293 -592 -393 -389 -926 -670 -1694 -893 -302 -87
-715 -175 -950 -201 -33 -4 -62 -9 -65 -10 -3 -2 -43 -6 -90 -10 -47 -4 -88
-9 -91 -11 -4 -2 -64 -6 -135 -10 -71 -3 -132 -8 -136 -11 -15 -8 -8 18 11 45
10 15 61 99 112 187 187 323 505 810 621 950 9 11 54 67 100 125 176 221 413
437 561 510 111 54 175 64 285 45 l43 -8 -6 39 c-18 109 -60 161 -173 218
-118 59 -198 81 -292 81 -103 0 -159 -15 -270 -71 -145 -74 -273 -180 -450
-374 -224 -244 -317 -412 -303 -550 8 -87 -25 -196 -106 -350 -92 -174 -118
-223 -146 -275 -37 -69 -42 -77 -199 -361 l-116 -211 -63 3 c-134 8 -203 8
-215 1 -14 -10 -16 -61 -2 -87 14 -26 65 -40 149 -43 83 -2 82 5 15 -118 -72
-134 -267 -533 -342 -699 -106 -236 -213 -528 -247 -676 -30 -131 -37 -253
-15 -279 11 -13 93 -41 150 -52 14 -2 41 -8 61 -12 72 -16 151 -7 204 24 109
65 257 233 386 440 24 39 65 96 91 128 54 66 78 107 78 136 0 72 -87 8 -252
-184 -142 -165 -209 -215 -285 -215 -61 1 -93 38 -93 107 0 114 202 592 433
1028 29 55 84 159 122 231 l68 131 76 3 c148 4 354 15 451 25 25 2 81 7 125
10 44 3 91 8 105 10 14 2 50 7 80 10 30 3 62 8 70 10 8 2 42 6 75 10 33 3 83
9 110 15 28 5 66 11 85 14 19 3 58 10 85 15 28 5 70 12 95 16 24 4 47 8 51 10
3 2 21 7 40 10 357 63 932 252 1259 415 264 131 578 368 752 568 183 210 280
474 273 740 -10 356 -262 703 -665 915 -148 78 -290 128 -490 173 -36 8 -74
17 -85 20 -11 2 -56 11 -100 20 -44 8 -100 19 -125 24 -25 5 -67 12 -95 15
-47 5 -68 8 -140 20 -16 2 -61 7 -100 11 -38 3 -86 7 -105 10 -69 7 -477 23
-483 18z"/>
</g>
</svg>
